<svg width="82" height="82" viewBox="0 0 82 82" fill="none" xmlns="http://www.w3.org/2000/svg">
<path d="M55.3158 6.83325H26.6841C14.2474 6.83325 6.83325 14.2474 6.83325 26.6841V55.2816C6.83325 67.7524 14.2474 75.1666 26.6841 75.1666H55.2816C67.7183 75.1666 75.1324 67.7524 75.1324 55.3158V26.6841C75.1666 14.2474 67.7524 6.83325 55.3158 6.83325ZM39.2916 58.9374C39.2916 60.1674 38.0616 60.9874 36.9341 60.5091C32.7999 58.7324 27.4016 57.0924 23.6433 56.6141L22.9941 56.5457C20.9099 56.2724 19.2016 54.3249 19.2016 52.2066V25.8983C19.2016 23.2674 21.3199 21.3199 23.9166 21.5249C28.1874 21.8666 34.5083 23.9166 38.4716 26.1716C39.0183 26.4791 39.2916 27.0599 39.2916 27.6408V58.9374ZM62.7983 52.1724C62.7983 54.2908 61.0899 56.2383 59.0058 56.5116L58.2882 56.5799C54.5641 57.0924 49.1999 58.6983 45.0658 60.4408C43.9383 60.9191 42.7083 60.0991 42.7083 58.8691V27.6066C42.7083 26.9916 43.0158 26.4108 43.5624 26.1033C47.5258 23.8824 53.7099 21.9008 57.9124 21.5249H58.0491C60.6799 21.5249 62.7983 23.6433 62.7983 26.2741V52.1724Z" fill="white"/>
</svg>
