<svg width="82" height="82" viewBox="0 0 82 82" fill="none" xmlns="http://www.w3.org/2000/svg">
<path d="M36.2166 14.1791C36.2166 14.8283 35.6699 15.3749 35.0208 15.3749H31.1599C23.7799 15.3749 17.7666 21.3883 17.7666 28.7683V60.3041C17.7666 60.9533 17.2199 61.4999 16.5708 61.4999H14.1791C10.1133 61.4999 6.83325 58.2199 6.83325 54.1541V14.1791C6.83325 10.1133 10.1133 6.83325 14.1791 6.83325H28.8708C32.9366 6.83325 36.2166 10.1133 36.2166 14.1791Z" fill="white"/>
<path d="M75.1668 14.1791V54.1541C75.1668 58.2199 71.8868 61.4999 67.8209 61.4999H65.6684C65.0193 61.4999 64.4726 60.9533 64.4726 60.3041V28.7683C64.4726 21.3883 58.4593 15.3749 51.0793 15.3749H46.9793C46.3301 15.3749 45.7834 14.8283 45.7834 14.1791C45.7834 10.1133 49.0634 6.83325 53.1293 6.83325H67.8209C71.8868 6.83325 75.1668 10.1133 75.1668 14.1791Z" fill="white"/>
<path d="M51.0791 20.5H31.1599C26.5816 20.5 22.8916 24.19 22.8916 28.7683V66.8983C22.8916 71.4767 26.5816 75.1667 31.1599 75.1667H36.7291C37.6858 75.1667 38.4374 74.415 38.4374 73.4583V64.9167C38.4374 63.5158 39.5991 62.3542 40.9999 62.3542C42.4008 62.3542 43.5624 63.5158 43.5624 64.9167V73.4583C43.5624 74.415 44.3141 75.1667 45.2708 75.1667H51.1133C55.6574 75.1667 59.3474 71.4767 59.3474 66.9325V28.7683C59.3474 24.19 55.6574 20.5 51.0791 20.5ZM47.8333 50.3958H34.1666C32.7658 50.3958 31.6041 49.2342 31.6041 47.8333C31.6041 46.4325 32.7658 45.2708 34.1666 45.2708H47.8333C49.2341 45.2708 50.3958 46.4325 50.3958 47.8333C50.3958 49.2342 49.2341 50.3958 47.8333 50.3958ZM47.8333 40.1458H34.1666C32.7658 40.1458 31.6041 38.9842 31.6041 37.5833C31.6041 36.1825 32.7658 35.0208 34.1666 35.0208H47.8333C49.2341 35.0208 50.3958 36.1825 50.3958 37.5833C50.3958 38.9842 49.2341 40.1458 47.8333 40.1458Z" fill="white"/>
</svg>
