<svg width="137" height="137" viewBox="0 0 137 137" fill="none" xmlns="http://www.w3.org/2000/svg">
<path d="M125.583 121.302H118.448V62.7916C118.448 48.9774 110.856 41.3853 97.0417 41.3853H72.7813V34.3641C76.0922 35.1632 79.403 35.6199 82.7709 35.6199C88.1367 35.6199 93.5026 34.5924 98.6401 32.5374C100.238 31.9095 101.323 30.3111 101.323 28.5416V11.4166C101.323 9.98948 100.638 8.67656 99.4392 7.8774C98.2405 7.07823 96.7563 6.90698 95.4434 7.42073C87.2805 10.6745 78.2613 10.6745 70.0984 7.42073C68.7855 6.90698 67.3013 7.07823 66.1026 7.8774C64.9038 8.67656 64.2188 9.98948 64.2188 11.4166V28.5416V41.3853H39.9584C26.1442 41.3853 18.5522 48.9774 18.5522 62.7916V121.302H11.4167C9.07633 121.302 7.1355 123.243 7.1355 125.583C7.1355 127.924 9.07633 129.864 11.4167 129.864H22.8334H114.167H125.583C127.924 129.864 129.865 127.924 129.865 125.583C129.865 123.243 127.924 121.302 125.583 121.302ZM41.3284 121.302H27.1147V72.7811H41.3284V121.302ZM64.1617 121.302H49.8909V72.7811H64.1617V121.302ZM86.9951 121.302H72.7242V72.7811H86.9951V121.302ZM109.885 121.302H95.5576V72.7811H109.885V121.302Z" fill="white"/>
</svg>
