<svg width="82" height="82" viewBox="0 0 82 82" fill="none" xmlns="http://www.w3.org/2000/svg">
<path d="M23.9166 27.3333H13.6666C9.90825 27.3333 6.83325 24.2583 6.83325 20.4999V13.6666C6.83325 9.90825 9.90825 6.83325 13.6666 6.83325H23.9166C27.6749 6.83325 30.7499 9.90825 30.7499 13.6666V20.4999C30.7499 24.2583 27.6749 27.3333 23.9166 27.3333Z" fill="white"/>
<path d="M71.0667 23.9167H58.7668C56.5118 23.9167 54.6667 22.0717 54.6667 19.8167V14.35C54.6667 12.095 56.5118 10.25 58.7668 10.25H71.0667C73.3217 10.25 75.1667 12.095 75.1667 14.35V19.8167C75.1667 22.0717 73.3217 23.9167 71.0667 23.9167Z" fill="white"/>
<path d="M71.0667 49.5417H58.7668C56.5118 49.5417 54.6667 47.6967 54.6667 45.4417V39.975C54.6667 37.72 56.5118 35.875 58.7668 35.875H71.0667C73.3217 35.875 75.1667 37.72 75.1667 39.975V45.4417C75.1667 47.6967 73.3217 49.5417 71.0667 49.5417Z" fill="white"/>
<path opacity="0.96" d="M54.6667 45.2708C56.0675 45.2708 57.2292 44.1091 57.2292 42.7083C57.2292 41.3074 56.0675 40.1458 54.6667 40.1458H45.2708V19.6458H54.6667C56.0675 19.6458 57.2292 18.4841 57.2292 17.0833C57.2292 15.6824 56.0675 14.5208 54.6667 14.5208H30.75C29.3492 14.5208 28.1875 15.6824 28.1875 17.0833C28.1875 18.4841 29.3492 19.6458 30.75 19.6458H40.1458V61.4999C40.1458 66.6933 44.3483 70.8958 49.5417 70.8958H54.6667C56.0675 70.8958 57.2292 69.7341 57.2292 68.3333C57.2292 66.9324 56.0675 65.7708 54.6667 65.7708H49.5417C47.1842 65.7708 45.2708 63.8574 45.2708 61.4999V45.2708H54.6667Z" fill="white"/>
<path d="M71.0667 75.1667H58.7668C56.5118 75.1667 54.6667 73.3217 54.6667 71.0667V65.6C54.6667 63.345 56.5118 61.5 58.7668 61.5H71.0667C73.3217 61.5 75.1667 63.345 75.1667 65.6V71.0667C75.1667 73.3217 73.3217 75.1667 71.0667 75.1667Z" fill="white"/>
</svg>
