<svg width="133" height="133" viewBox="0 0 133 133" fill="none" xmlns="http://www.w3.org/2000/svg">
<g clip-path="url(#clip0_525_201)">
<path d="M40.4106 0C40.409 0.0192227 40.1173 2.0441 38.6281 3.27435C37.4677 4.23314 35.7068 4.59915 33.3946 4.36484C29.1799 3.93623 25.452 4.94126 22.6138 7.26902C18.0123 11.0445 17.3341 16.8526 17.272 17.5022L25.3556 18.2755C25.3585 18.2457 25.7663 15.1869 27.7644 13.5473C28.9261 12.5942 30.4985 12.2334 32.5732 12.4441C37.1259 12.9078 40.9031 11.9279 43.7998 9.53548C47.9067 6.14294 48.4509 1.2648 48.4992 0.719811L40.4106 0Z" fill="white"/>
<path d="M68.465 0C68.4635 0.0192227 68.1718 2.0441 66.6825 3.27435C65.5222 4.23314 63.7607 4.59915 61.4488 4.36484C57.2338 3.93623 53.5057 4.94126 50.668 7.26902C46.0665 11.0445 45.3882 16.8523 45.3264 17.5025L53.4103 18.2758L53.4067 18.3119C53.4088 18.293 53.6379 16.3881 54.7479 14.7427C55.5329 13.5792 56.9974 12.077 60.6279 12.4443C65.1806 12.908 68.9578 11.9282 71.8545 9.53574C75.9614 6.1432 76.5056 1.26506 76.5539 0.72007L68.465 0Z" fill="white"/>
<path d="M68.4975 75.2555V79.3159V83.3763V124.338H60.2224V83.3763V79.3159V75.2555V37.2907L51.4439 44.9676V22.554H43.3231V52.0706L39.3817 55.5167V60.9115V66.3063V124.608H39.111H35.0506H31.2609V62.6194V49.5478V44.1555L25.2759 49.388L25.2749 49.3888V24.4489H17.1541V56.4404H17.2112L9.87622 62.855V133H30.9905H39.1113H52.1019H60.2227H123.124V75.2555H68.4975ZM82.5737 91.2373H108.56V99.3581H82.5737V91.2373ZM108.818 106.518V124.338H100.697V114.639H90.4563V124.338H82.3355V106.518H108.818Z" fill="white"/>
</g>
<defs>
<clipPath id="clip0_525_201">
<rect width="133" height="133" fill="white"/>
</clipPath>
</defs>
</svg>
