<svg width="82" height="82" viewBox="0 0 82 82" fill="none" xmlns="http://www.w3.org/2000/svg">
<path d="M40.8974 6.83325C22.0374 6.83325 6.73071 22.1399 6.73071 40.9999C6.73071 59.8599 22.0374 75.1666 40.8974 75.1666C59.7574 75.1666 75.064 59.8599 75.064 40.9999C75.064 22.1399 59.7915 6.83325 40.8974 6.83325ZM53.7099 42.1958L40.9999 56.6483L39.4965 58.3566C37.4124 60.7141 35.704 60.0991 35.704 56.9216V43.3916H29.8957C27.2649 43.3916 26.5474 41.7858 28.2899 39.8041L40.9999 25.3516L42.5032 23.6433C44.5874 21.2858 46.2957 21.9008 46.2957 25.0783V38.6083H52.104C54.7349 38.6083 55.4524 40.2141 53.7099 42.1958Z" fill="white"/>
</svg>
