<svg width="82" height="82" viewBox="0 0 82 82" fill="none" xmlns="http://www.w3.org/2000/svg">
<path d="M64.0624 75.1666C70.1951 75.1666 75.1666 70.1951 75.1666 64.0624C75.1666 57.9298 70.1951 52.9583 64.0624 52.9583C57.9298 52.9583 52.9583 57.9298 52.9583 64.0624C52.9583 70.1951 57.9298 75.1666 64.0624 75.1666Z" fill="white"/>
<path d="M64.9167 27.3333C70.5777 27.3333 75.1667 22.7442 75.1667 17.0833C75.1667 11.4223 70.5777 6.83325 64.9167 6.83325C59.2558 6.83325 54.6667 11.4223 54.6667 17.0833C54.6667 22.7442 59.2558 27.3333 64.9167 27.3333Z" fill="white"/>
<path d="M17.0833 27.3333C22.7442 27.3333 27.3333 22.7442 27.3333 17.0833C27.3333 11.4223 22.7442 6.83325 17.0833 6.83325C11.4223 6.83325 6.83325 11.4223 6.83325 17.0833C6.83325 22.7442 11.4223 27.3333 17.0833 27.3333Z" fill="white"/>
<path d="M16.5025 27.4016C19.8166 36.8999 28.7683 43.2891 38.8475 43.2891C38.8816 43.2891 38.9158 43.2891 38.95 43.2891L51.0108 43.2549C56.2041 43.1866 60.8508 46.7058 62.2516 51.7624V58.0833C62.2516 59.5183 63.4133 60.6799 64.8825 60.6799C66.3175 60.6799 67.4791 59.5183 67.4791 58.0833V19.6799C67.4791 18.2449 66.3175 17.0833 64.8825 17.0833C63.4474 17.0833 62.2516 18.2449 62.2516 19.6799V42.2983C59.2449 39.6333 55.3158 37.9933 51.0449 37.9933C51.0108 37.9933 51.0108 37.9933 50.9766 37.9933L38.9158 38.0274C38.8816 38.0274 38.8816 38.0274 38.8475 38.0274C31.0233 38.0274 24.0191 33.0733 21.4566 25.6591C21.0466 24.5999 20.0558 23.9166 18.9625 23.9166C18.6891 23.9166 18.3816 23.9849 18.1083 24.0533C16.7416 24.5316 16.0241 26.0349 16.5025 27.4016Z" fill="white"/>
</svg>
