<svg width="61" height="61" viewBox="0 0 61 61" fill="none" xmlns="http://www.w3.org/2000/svg">
<path d="M28.8416 7.05859C29.1506 6.78937 29.7635 6.41766 30.5701 6.5332L30.7341 6.5625L30.8953 6.60449C31.6761 6.83857 32.0757 7.43447 32.2429 7.80859C32.4011 8.1626 32.4452 8.50239 32.4636 8.67383C32.5025 9.03577 32.4998 9.50394 32.4998 9.89551V23.9248H40.0789C40.7163 23.9248 41.4225 23.9194 41.9929 24.0039C42.5596 24.088 43.4407 24.3213 44.0525 25.1387L44.1716 25.3096L44.2771 25.4893C44.7618 26.3878 44.603 27.2854 44.4412 27.835C44.2782 28.3882 43.9766 29.0269 43.7087 29.6055L33.2683 52.1553C33.1039 52.5104 32.9107 52.9361 32.7234 53.248C32.6346 53.3959 32.4513 53.6866 32.1589 53.9414C31.8294 54.2286 31.1537 54.6328 30.2664 54.4375C29.3786 54.242 28.9349 53.5905 28.7566 53.1914C28.5985 52.8374 28.5543 52.4975 28.5359 52.3262C28.497 51.9642 28.4998 51.4961 28.4998 51.1045V37.0752H20.9216C20.2839 37.0752 19.5772 37.0807 19.0066 36.9961C18.4022 36.9064 17.4404 36.6473 16.8289 35.6904C16.2173 34.7334 16.3867 33.7512 16.5593 33.165C16.7223 32.6118 17.0239 31.9731 17.2917 31.3945L27.7312 8.84473C27.8957 8.48948 28.0898 8.06403 28.2771 7.75195C28.3658 7.60414 28.5492 7.31344 28.8416 7.05859Z" stroke="white" stroke-width="4"/>
</svg>
