<svg width="193" height="193" viewBox="0 0 193 193" fill="none" xmlns="http://www.w3.org/2000/svg">
<rect width="193" height="193" rx="96.5" fill="black"/>
<g clip-path="url(#clip0_107_1198)">
<path d="M151.535 112.789C151.535 114.402 150.772 115.372 149.245 115.696C144.248 116.758 140.857 121.598 141.34 126.977C141.769 131.77 146.034 135.716 150.969 135.884C158.717 136.15 163.823 128.503 160.673 121.351C160.037 119.909 160.133 119.576 161.444 118.677C162.028 118.278 162.605 117.872 163.197 117.486C164.286 116.777 164.785 116.909 165.429 118.055C168.518 123.559 167.92 130.67 163.953 135.616C159.474 141.199 152.11 143.173 145.49 140.56C139.162 138.063 135.065 131.351 135.573 124.316C136.1 116.988 141.688 110.954 148.908 109.928C149.311 109.871 149.725 109.891 150.13 109.85C151.147 109.746 151.572 110.232 151.538 111.22C151.52 111.742 151.535 112.265 151.535 112.789Z" fill="white"/>
<path d="M127.91 125.821C127.91 130.593 127.912 135.367 127.91 140.139C127.91 141.601 127.816 141.692 126.376 141.695C125.201 141.698 124.024 141.683 122.849 141.7C122.047 141.712 121.675 141.372 121.677 140.545C121.687 130.773 121.685 121 121.683 111.227C121.683 110.24 122.13 109.786 123.157 109.841C124.216 109.898 125.28 109.851 126.341 109.854C127.791 109.857 127.908 109.963 127.908 111.39C127.913 116.201 127.91 121.011 127.91 125.821Z" fill="white"/>
<path d="M127.248 100.835C127.905 100.835 128.561 100.836 129.22 100.832C129.285 100.832 129.298 100.857 129.296 100.946C129.29 101.694 129.18 102.41 128.976 103.096C128.844 103.541 128.666 103.948 128.46 104.327C128.268 104.68 128.042 104.985 127.793 105.259C127.599 105.473 127.394 105.658 127.175 105.814C126.851 106.045 126.509 106.203 126.152 106.293C125.926 106.349 125.7 106.375 125.47 106.373C124.245 106.373 123.021 106.373 121.795 106.373C121.676 106.373 121.663 106.364 121.687 106.189C121.705 106.045 121.698 105.902 121.708 105.757C121.733 105.436 121.774 105.122 121.832 104.814C121.902 104.448 121.999 104.097 122.123 103.764C122.258 103.403 122.414 103.063 122.602 102.752C122.827 102.378 123.075 102.043 123.359 101.768C123.6 101.534 123.858 101.344 124.13 101.192C124.395 101.044 124.669 100.95 124.948 100.884C125.063 100.857 125.179 100.841 125.295 100.84C125.946 100.835 126.595 100.838 127.245 100.838L127.248 100.835Z" fill="white"/>
<path d="M112.619 122.31C112.534 125.308 112.859 129.028 112.497 132.719C111.826 139.551 104.766 143.577 98.4165 140.826C96.5789 140.029 94.9933 138.881 93.7728 137.275C93.0143 136.277 93.1078 135.808 94.178 135.21C94.9711 134.768 95.7996 134.382 96.5698 133.903C97.4225 133.373 98.0529 133.452 98.7366 134.241C99.9321 135.618 101.545 135.992 103.288 135.696C105.063 135.396 106.443 133.776 106.467 131.775C106.531 126.516 106.486 121.257 106.506 115.999C106.507 115.444 106.309 115.284 105.777 115.294C104.336 115.321 102.892 115.282 101.45 115.311C100.652 115.327 100.224 115.011 100.222 114.197C100.22 113.099 100.212 112.003 100.227 110.905C100.238 110.165 100.616 109.834 101.381 109.838C104.759 109.856 108.136 109.86 111.514 109.837C112.489 109.829 112.626 110.4 112.625 111.163C112.619 114.644 112.621 118.124 112.621 122.312L112.619 122.31Z" fill="white"/>
<path d="M80.8875 125.215C80.909 120.681 80.9332 116.147 80.9519 111.615C80.9595 109.885 80.9838 109.857 82.7778 109.854C83.7074 109.854 84.6405 109.898 85.5673 109.842C86.6569 109.776 87.0171 110.299 87.0171 111.256C87.0136 113.729 87.0323 116.202 87.0427 118.675C87.0212 122.457 86.9866 126.239 86.9845 130.023C86.9817 134.642 84.9681 138.17 80.6742 140.207C76.2431 142.309 71.7898 142.294 67.5721 139.503C66.1728 138.577 65.1788 137.288 64.2292 135.961C62.8819 133.447 62.7337 130.74 62.8175 127.983C62.8743 126.148 62.8528 124.308 62.8175 122.473C62.7995 121.53 63.1638 121.079 64.1772 121.112C65.3389 121.148 66.5033 121.137 67.6663 121.114C68.5446 121.098 68.9131 121.446 68.9013 122.325C68.866 125.023 68.8812 127.722 68.8916 130.422C68.8965 131.446 69.0897 132.43 69.7457 133.277C70.0124 133.364 70.207 133.548 70.3899 133.743C72.3474 135.827 74.7309 135.892 77.2052 134.928C79.5846 134.001 80.6132 132.11 80.6638 129.684C80.6852 128.673 80.6742 127.662 80.6665 126.65C80.6638 126.16 80.7005 125.679 80.8861 125.216L80.8875 125.215Z" fill="white"/>
<path d="M65.6651 109.848C68.6886 109.884 68.3194 109.434 68.3194 112.58C68.3194 115.568 68.7524 115.376 65.6831 115.371C62.5057 115.367 62.8223 115.692 62.8015 112.342C62.7828 109.456 62.7904 109.865 65.6651 109.848Z" fill="white"/>
<path d="M43.1142 140.95C42.044 140.831 41.7409 140.392 41.9198 139.263C42.4851 135.706 41.9864 136.346 45.3013 136.271C46.5154 136.243 47.6658 135.984 48.6905 135.314C50.8731 133.889 50.8579 131.16 48.6495 129.736C47.3157 128.876 45.7727 128.487 44.2903 127.97C42.1865 127.237 40.11 126.453 38.0683 125.564C33.5711 123.604 32.2767 118.061 35.4825 114.225C38.3714 110.769 42.1986 109.419 46.7701 109.947C49.6499 110.281 52.3631 110.922 54.623 112.847C55.3067 113.43 55.4944 113.883 54.9167 114.605C54.2822 115.4 53.8805 116.568 53.0603 116.97C52.1327 117.424 51.2384 116.301 50.3002 115.932C47.2247 114.723 44.1706 114.37 41.2362 116.214C38.9626 117.643 39.052 119.861 41.4044 121.178C43.8159 122.527 46.4457 123.409 49.027 124.398C50.6685 125.028 52.3025 125.658 53.6863 126.816C56.4101 129.094 56.539 134.268 54.3473 137.001C53.2467 138.374 51.7886 139.234 50.2729 140.051C47.9447 140.79 45.5665 141.155 43.1126 140.951L43.1142 140.95Z" fill="white"/>
<path d="M35.4806 138.925C34.7372 138.609 33.9145 138.379 33.2627 137.885C32.9116 137.619 32.9788 137.283 33.1742 136.971C33.5604 136.357 33.971 135.753 34.3602 135.14C34.5281 134.874 34.7861 134.678 35.1066 134.822C35.8668 135.162 37.2314 135.018 37.1674 136.058C37.1139 136.915 36.5308 137.752 36.1538 138.587C36.0546 138.807 35.8195 138.951 35.4791 138.926L35.4806 138.925Z" fill="white"/>
</g>
<mask id="mask0_107_1198" style="mask-type:luminance" maskUnits="userSpaceOnUse" x="65" y="51" width="63" height="44">
<path d="M127.012 51.2999H65.5V94.8316H127.012V51.2999Z" fill="white"/>
</mask>
<g mask="url(#mask0_107_1198)">
<path d="M113.972 51.3086C117.35 51.3086 120.729 51.3143 124.106 51.2999C124.442 51.2985 124.509 51.388 124.506 51.7021C124.476 54.3201 123.908 56.8204 122.862 59.2218C122.184 60.7794 121.269 62.1994 120.209 63.5241C119.221 64.759 118.064 65.8274 116.787 66.7834C115.785 67.5334 114.732 68.1814 113.609 68.7242C111.938 69.532 110.187 70.0873 108.348 70.401C107.185 70.5994 106.022 70.6846 104.845 70.6837C98.5466 70.6788 92.2485 70.6812 85.9504 70.6812C85.3335 70.6812 85.2669 70.6488 85.386 70.0385C85.484 69.5349 85.4428 69.0308 85.5015 68.5281C85.6317 67.409 85.8357 66.309 86.1388 65.2268C86.4973 63.9479 86.9975 62.7188 87.6371 61.5528C88.3302 60.2892 89.1346 59.0984 90.0988 58.0099C91.2571 56.7023 92.5394 55.5326 93.9965 54.5655C95.2341 53.7443 96.5634 53.0795 97.9603 52.5463C99.3203 52.0269 100.73 51.7002 102.162 51.4659C102.75 51.3698 103.353 51.3172 103.949 51.3148C107.29 51.3009 110.631 51.3081 113.971 51.3081L113.972 51.3086Z" fill="#81BC00"/>
<path d="M94.1353 75.2939C97.5133 75.2939 100.891 75.2997 104.269 75.2853C104.605 75.2839 104.672 75.3733 104.669 75.6876C104.639 78.3055 104.071 80.8058 103.025 83.2071C102.347 84.7648 101.431 86.1848 100.372 87.5096C99.3838 88.7444 98.2263 89.8128 96.9494 90.7689C95.9479 91.5187 94.8949 92.1668 93.7715 92.7096C92.1012 93.5173 90.3497 94.0726 88.5113 94.3864C87.3481 94.5848 86.1843 94.67 85.0075 94.669C78.7094 94.6642 72.4113 94.6666 66.1132 94.6666C65.4963 94.6666 65.4298 94.6341 65.5488 94.0238C65.6469 93.5203 65.6056 93.0161 65.6644 92.5135C65.7946 91.3944 65.9986 90.2944 66.3016 89.2121C66.6601 87.9332 67.1603 86.7041 67.8 85.5382C68.4931 84.2746 69.2974 83.0837 70.2616 81.9952C71.42 80.6877 72.7022 79.5179 74.1593 78.5508C75.3968 77.7297 76.7263 77.0649 78.1232 76.5316C79.483 76.0123 80.8926 75.6856 82.3244 75.4513C82.9132 75.3551 83.5154 75.3025 84.1118 75.3002C87.4525 75.2862 90.7936 75.2934 94.1343 75.2934L94.1353 75.2939Z" fill="#81BC00"/>
</g>
<defs>
<clipPath id="clip0_107_1198">
<rect width="142" height="40.8683" fill="white" transform="translate(25.5 100.832)"/>
</clipPath>
</defs>
</svg>
