<svg width="230" height="230" viewBox="0 0 230 230" fill="none" xmlns="http://www.w3.org/2000/svg">
<rect width="230" height="230" rx="115" fill="white"/>
<mask id="mask0_41_83" style="mask-type:luminance" maskUnits="userSpaceOnUse" x="43" y="64" width="126" height="90">
<path d="M168.617 64.4999H43V153.398H168.617V64.4999Z" fill="white"/>
</mask>
<g mask="url(#mask0_41_83)">
<path d="M141.988 64.5174C148.886 64.5174 155.785 64.5292 162.682 64.4998C163.367 64.4969 163.505 64.6795 163.498 65.3211C163.438 70.6674 162.278 75.7734 160.142 80.6773C158.756 83.8583 156.887 86.7581 154.723 89.4633C152.706 91.9851 150.342 94.167 147.734 96.1193C145.689 97.6508 143.539 98.9742 141.245 100.083C137.834 101.732 134.257 102.866 130.503 103.507C128.127 103.912 125.751 104.086 123.347 104.084C110.486 104.074 97.6241 104.079 84.7625 104.079C83.5027 104.079 83.3668 104.013 83.61 102.767C83.8102 101.738 83.7259 100.709 83.8459 99.6821C84.1118 97.3969 84.5283 95.1505 85.1473 92.9404C85.8794 90.3287 86.9009 87.8187 88.2071 85.4376C89.6226 82.8572 91.2652 80.4253 93.2341 78.2025C95.5996 75.5322 98.2182 73.1434 101.194 71.1685C103.721 69.4916 106.436 68.134 109.289 67.045C112.066 65.9844 114.944 65.3173 117.868 64.8388C119.07 64.6424 120.3 64.535 121.518 64.5301C128.34 64.5017 135.163 64.5164 141.986 64.5164L141.988 64.5174Z" fill="#81BC00"/>
<path d="M101.477 113.499C108.376 113.499 115.274 113.511 122.172 113.481C122.857 113.479 122.995 113.661 122.988 114.303C122.928 119.649 121.768 124.755 119.632 129.659C118.246 132.84 116.377 135.74 114.213 138.445C112.195 140.967 109.832 143.149 107.224 145.101C105.179 146.633 103.029 147.956 100.734 149.064C97.3234 150.714 93.7466 151.848 89.9924 152.489C87.6169 152.894 85.2403 153.068 82.8371 153.066C69.9755 153.056 57.1138 153.061 44.2522 153.061C42.9925 153.061 42.8566 152.995 43.0996 151.748C43.3 150.72 43.2157 149.69 43.3357 148.664C43.6015 146.379 44.0181 144.132 44.637 141.922C45.3691 139.31 46.3907 136.8 47.697 134.419C49.1124 131.839 50.7549 129.407 52.7238 127.184C55.0894 124.514 57.7079 122.125 60.6836 120.15C63.2108 118.473 65.9256 117.116 68.7783 116.027C71.5554 114.966 74.4339 114.299 77.3579 113.82C78.5602 113.624 79.79 113.517 81.0079 113.512C87.8301 113.483 94.6532 113.498 101.475 113.498L101.477 113.499Z" fill="#81BC00"/>
</g>
<g clip-path="url(#clip0_41_83)">
<path d="M174.565 132.076C174.565 133.254 174.015 133.961 172.914 134.198C169.311 134.973 166.867 138.505 167.215 142.432C167.524 145.93 170.599 148.809 174.157 148.933C179.743 149.126 183.425 143.546 181.154 138.326C180.695 137.273 180.765 137.03 181.71 136.374C182.131 136.083 182.547 135.786 182.974 135.505C183.759 134.987 184.119 135.083 184.583 135.92C186.81 139.937 186.379 145.127 183.519 148.737C180.289 152.812 174.98 154.252 170.207 152.345C165.645 150.523 162.691 145.624 163.057 140.489C163.437 135.141 167.466 130.738 172.672 129.988C172.962 129.947 173.26 129.962 173.553 129.932C174.286 129.856 174.592 130.21 174.567 130.931C174.555 131.312 174.565 131.694 174.565 132.076Z" fill="#2F3E41"/>
<path d="M157.532 141.588C157.532 145.071 157.533 148.555 157.532 152.038C157.532 153.105 157.464 153.172 156.426 153.174C155.578 153.176 154.73 153.165 153.883 153.177C153.305 153.186 153.037 152.938 153.038 152.334C153.045 145.202 153.043 138.069 153.042 130.937C153.042 130.216 153.364 129.885 154.105 129.925C154.869 129.966 155.635 129.933 156.401 129.935C157.446 129.937 157.531 130.014 157.531 131.055C157.534 134.566 157.532 138.078 157.532 141.588Z" fill="#2F3E41"/>
<path d="M157.055 123.352C157.529 123.352 158.002 123.353 158.476 123.349C158.523 123.349 158.533 123.368 158.532 123.433C158.527 123.979 158.448 124.501 158.301 125.002C158.205 125.327 158.077 125.624 157.928 125.9C157.79 126.158 157.627 126.381 157.448 126.581C157.307 126.737 157.16 126.872 157.002 126.985C156.768 127.154 156.522 127.27 156.265 127.335C156.101 127.377 155.938 127.395 155.773 127.394C154.89 127.394 154.007 127.394 153.123 127.394C153.037 127.394 153.028 127.387 153.045 127.26C153.058 127.154 153.053 127.05 153.06 126.944C153.078 126.71 153.108 126.481 153.15 126.256C153.2 125.989 153.27 125.733 153.359 125.49C153.457 125.226 153.569 124.978 153.705 124.751C153.867 124.478 154.046 124.234 154.251 124.033C154.424 123.862 154.611 123.723 154.807 123.612C154.998 123.504 155.195 123.435 155.396 123.387C155.479 123.368 155.563 123.356 155.647 123.355C156.116 123.352 156.584 123.354 157.053 123.354L157.055 123.352Z" fill="#2F3E41"/>
<path d="M146.507 139.026C146.446 141.214 146.68 143.928 146.419 146.623C145.936 151.609 140.845 154.547 136.267 152.539C134.942 151.958 133.799 151.12 132.919 149.948C132.372 149.219 132.44 148.877 133.211 148.441C133.783 148.118 134.38 147.836 134.936 147.487C135.551 147.1 136.005 147.157 136.498 147.733C137.36 148.738 138.523 149.011 139.78 148.795C141.059 148.576 142.055 147.394 142.072 145.933C142.117 142.095 142.086 138.257 142.1 134.419C142.101 134.015 141.958 133.897 141.574 133.905C140.535 133.925 139.494 133.896 138.455 133.917C137.879 133.929 137.571 133.698 137.569 133.104C137.567 132.303 137.562 131.502 137.573 130.701C137.58 130.161 137.853 129.92 138.404 129.923C140.84 129.936 143.275 129.939 145.711 129.922C146.414 129.916 146.512 130.333 146.511 130.89C146.507 133.43 146.509 135.97 146.509 139.027L146.507 139.026Z" fill="#2F3E41"/>
<path d="M123.629 141.146C123.644 137.837 123.662 134.528 123.675 131.22C123.681 129.957 123.698 129.937 124.992 129.934C125.662 129.934 126.335 129.967 127.003 129.926C127.788 129.877 128.048 130.259 128.048 130.957C128.046 132.762 128.059 134.567 128.067 136.373C128.051 139.133 128.026 141.893 128.025 144.655C128.023 148.026 126.571 150.601 123.475 152.088C120.28 153.622 117.069 153.611 114.028 151.574C113.02 150.898 112.303 149.957 111.618 148.989C110.647 147.153 110.54 145.178 110.6 143.166C110.641 141.826 110.626 140.484 110.6 139.145C110.587 138.456 110.85 138.127 111.581 138.151C112.418 138.178 113.258 138.169 114.096 138.153C114.73 138.141 114.995 138.395 114.987 139.036C114.961 141.006 114.972 142.975 114.98 144.946C114.983 145.694 115.123 146.411 115.596 147.03C115.788 147.093 115.928 147.228 116.06 147.37C117.471 148.891 119.19 148.938 120.974 148.235C122.689 147.558 123.431 146.178 123.467 144.407C123.483 143.669 123.475 142.931 123.469 142.193C123.467 141.835 123.494 141.484 123.628 141.147L123.629 141.146Z" fill="#2F3E41"/>
<path d="M112.653 129.93C114.833 129.956 114.567 129.628 114.567 131.924C114.567 134.104 114.879 133.964 112.666 133.961C110.376 133.958 110.604 134.195 110.589 131.75C110.575 129.644 110.581 129.942 112.653 129.93Z" fill="#2F3E41"/>
<path d="M96.3943 152.63C95.6228 152.543 95.4042 152.223 95.5332 151.399C95.9408 148.803 95.5812 149.27 97.9713 149.215C98.8466 149.195 99.6761 149.005 100.415 148.517C101.989 147.476 101.978 145.484 100.385 144.445C99.4236 143.817 98.3111 143.533 97.2423 143.156C95.7255 142.622 94.2283 142.05 92.7563 141.4C89.5138 139.97 88.5805 135.924 90.8919 133.125C92.9748 130.603 95.7342 129.617 99.0302 130.003C101.107 130.246 103.063 130.714 104.692 132.119C105.185 132.544 105.32 132.875 104.904 133.402C104.446 133.982 104.157 134.835 103.565 135.128C102.897 135.459 102.252 134.64 101.575 134.371C99.3581 133.488 97.156 133.231 95.0403 134.576C93.401 135.619 93.4655 137.238 95.1616 138.199C96.9003 139.183 98.7963 139.827 100.657 140.55C101.841 141.009 103.019 141.469 104.017 142.314C105.981 143.977 106.074 147.753 104.493 149.748C103.7 150.749 102.649 151.377 101.556 151.974C99.8772 152.513 98.1625 152.78 96.3932 152.631L96.3943 152.63Z" fill="#2F3E41"/>
<path d="M90.8904 151.152C90.3544 150.922 89.7612 150.753 89.2913 150.393C89.0382 150.199 89.0866 149.953 89.2275 149.726C89.5059 149.277 89.802 148.837 90.0826 148.389C90.2037 148.195 90.3896 148.052 90.6208 148.157C91.1688 148.406 92.1528 148.3 92.1066 149.059C92.068 149.685 91.6476 150.295 91.3758 150.905C91.3042 151.066 91.1347 151.171 90.8893 151.153L90.8904 151.152Z" fill="#2F3E41"/>
</g>
<defs>
<clipPath id="clip0_41_83">
<rect width="102.382" height="29.8278" fill="white" transform="translate(83.6179 123.349)"/>
</clipPath>
</defs>
</svg>
