<svg width="193" height="193" viewBox="0 0 193 193" fill="none" xmlns="http://www.w3.org/2000/svg">
<rect width="193" height="193" rx="96.5" fill="black"/>
<g clip-path="url(#clip0_334_300)">
<path d="M151.141 96.4888C151.141 98.1025 150.378 99.0717 148.851 99.3962C143.854 100.458 140.463 105.298 140.946 110.677C141.375 115.47 145.64 119.416 150.575 119.584C158.323 119.85 163.429 112.203 160.279 105.051C159.643 103.609 159.739 103.276 161.05 102.377C161.634 101.978 162.212 101.572 162.803 101.186C163.893 100.477 164.391 100.609 165.035 101.755C168.124 107.259 167.526 114.371 163.559 119.316C159.08 124.899 151.716 126.873 145.097 124.26C138.768 121.763 134.671 115.051 135.179 108.016C135.707 100.688 141.295 94.6545 148.514 93.6282C148.917 93.571 149.331 93.5915 149.736 93.5505C150.753 93.4464 151.178 93.9317 151.144 94.9199C151.127 95.4418 151.141 95.9653 151.141 96.4888Z" fill="white"/>
<path d="M127.516 109.521C127.516 114.293 127.518 119.067 127.516 123.839C127.516 125.302 127.422 125.392 125.982 125.395C124.807 125.398 123.63 125.383 122.455 125.4C121.654 125.412 121.282 125.072 121.283 124.245C121.293 114.473 121.291 104.7 121.289 94.9276C121.289 93.9398 121.736 93.4861 122.763 93.5411C123.822 93.5977 124.886 93.5515 125.947 93.5545C127.397 93.5575 127.514 93.6631 127.514 95.0897C127.519 99.9007 127.516 104.712 127.516 109.521Z" fill="white"/>
<path d="M126.854 84.5349C127.512 84.5349 128.168 84.5365 128.826 84.5317C128.891 84.5317 128.904 84.5569 128.902 84.6465C128.896 85.3945 128.786 86.1096 128.582 86.7964C128.45 87.2411 128.272 87.6482 128.066 88.0269C127.874 88.3805 127.648 88.6854 127.399 88.9589C127.205 89.1726 127 89.3581 126.781 89.5136C126.457 89.7447 126.115 89.9034 125.758 89.993C125.532 90.0496 125.306 90.0747 125.076 90.0731C123.851 90.0731 122.627 90.0731 121.401 90.0731C121.282 90.0731 121.269 90.0637 121.293 89.8893C121.311 89.7447 121.304 89.6017 121.314 89.4571C121.339 89.1365 121.38 88.8221 121.438 88.5141C121.508 88.1479 121.605 87.7975 121.729 87.4643C121.864 87.1028 122.02 86.7634 122.208 86.4522C122.433 86.0782 122.681 85.7434 122.965 85.4684C123.206 85.2342 123.464 85.0441 123.736 84.8916C124.001 84.7439 124.275 84.6496 124.554 84.5836C124.669 84.5569 124.785 84.5412 124.902 84.5396C125.552 84.5349 126.201 84.538 126.851 84.538L126.854 84.5349Z" fill="white"/>
<path d="M112.225 106.01C112.14 109.008 112.465 112.728 112.103 116.419C111.432 123.251 104.372 127.277 98.0226 124.526C96.1849 123.73 94.5994 122.581 93.3789 120.975C92.6204 119.977 92.7139 119.508 93.7841 118.911C94.5772 118.468 95.4057 118.082 96.1759 117.603C97.0286 117.073 97.659 117.152 98.3426 117.941C99.5382 119.318 101.151 119.692 102.894 119.396C104.669 119.096 106.049 117.476 106.073 115.475C106.137 110.216 106.092 104.957 106.112 99.6986C106.113 99.1445 105.915 98.984 105.383 98.9944C103.942 99.0211 102.498 98.9826 101.057 99.0108C100.258 99.0271 99.8305 98.7107 99.8284 97.8966C99.8257 96.7989 99.8181 95.7026 99.8333 94.6047C99.8437 93.865 100.222 93.5337 100.987 93.5382C104.365 93.556 107.742 93.5605 111.121 93.5367C112.095 93.5293 112.232 94.0997 112.231 94.8632C112.225 98.3438 112.227 101.824 112.227 106.012L112.225 106.01Z" fill="white"/>
<path d="M80.4936 108.915C80.5151 104.381 80.5393 99.8475 80.558 95.3154C80.5656 93.585 80.5899 93.557 82.3839 93.554C83.3135 93.554 84.2465 93.5983 85.1733 93.5422C86.2629 93.476 86.6231 93.9991 86.6231 94.9557C86.6197 97.4289 86.6384 99.9021 86.6488 102.375C86.6273 106.157 86.5927 109.939 86.5906 113.723C86.5878 118.342 84.5742 121.87 80.2802 123.907C75.8491 126.009 71.3959 125.994 67.1781 123.203C65.7789 122.277 64.7849 120.988 63.8353 119.661C62.488 117.147 62.3398 114.441 62.4236 111.683C62.4804 109.848 62.4589 108.009 62.4236 106.174C62.4056 105.23 62.7699 104.779 63.7833 104.812C64.9449 104.848 66.1093 104.837 67.2723 104.815C68.1507 104.798 68.5192 105.146 68.5074 106.025C68.4721 108.723 68.4873 111.422 68.4977 114.122C68.5026 115.147 68.6958 116.13 69.3518 116.977C69.6185 117.064 69.8131 117.248 69.996 117.443C71.9535 119.527 74.337 119.592 76.8113 118.628C79.1907 117.701 80.2193 115.81 80.2698 113.384C80.2913 112.373 80.2802 111.362 80.2726 110.351C80.2698 109.86 80.3066 109.379 80.4922 108.916L80.4936 108.915Z" fill="white"/>
<path d="M65.2712 93.5476C68.2947 93.5837 67.9255 93.1345 67.9255 96.2805C67.9255 99.2677 68.3584 99.0756 65.2892 99.0713C62.1118 99.0669 62.4284 99.3919 62.4076 96.0422C62.3889 93.1562 62.3965 93.565 65.2712 93.5476Z" fill="white"/>
<path d="M42.7204 124.65C41.6502 124.531 41.3471 124.092 41.526 122.963C42.0913 119.406 41.5926 120.046 44.9075 119.971C46.1216 119.944 47.272 119.684 48.2967 119.014C50.4793 117.589 50.4641 114.86 48.2557 113.436C46.9219 112.576 45.3789 112.187 43.8965 111.67C41.7927 110.937 39.7162 110.154 37.6745 109.264C33.1773 107.304 31.8829 101.761 35.0887 97.9252C37.9776 94.4695 41.8048 93.119 46.3763 93.6475C49.2561 93.9807 51.9693 94.6222 54.2292 96.5468C54.9129 97.1296 55.1006 97.5832 54.5229 98.3054C53.8884 99.0996 53.4867 100.268 52.6665 100.67C51.7389 101.124 50.8446 100.001 49.9064 99.6325C46.8309 98.4228 43.7768 98.0705 40.8424 99.9143C38.5688 101.343 38.6582 103.561 41.0106 104.878C43.4221 106.227 46.0519 107.109 48.6332 108.098C50.2747 108.728 51.9087 109.358 53.2925 110.516C56.0163 112.794 56.1452 117.968 53.9535 120.701C52.8529 122.074 51.3948 122.934 49.8791 123.751C47.5509 124.49 45.1727 124.855 42.7188 124.651L42.7204 124.65Z" fill="white"/>
<path d="M35.0867 122.625C34.3433 122.309 33.5205 122.079 32.8688 121.585C32.5177 121.319 32.5849 120.983 32.7803 120.671C33.1664 120.057 33.5771 119.453 33.9663 118.84C34.1342 118.574 34.3921 118.378 34.7127 118.522C35.4729 118.862 36.8375 118.718 36.7734 119.758C36.72 120.615 36.1369 121.452 35.7598 122.287C35.6607 122.507 35.4256 122.651 35.0852 122.626L35.0867 122.625Z" fill="white"/>
</g>
<mask id="mask0_334_300" style="mask-type:luminance" maskUnits="userSpaceOnUse" x="65" y="35" width="62" height="44">
<path d="M126.512 35H65V78.5317H126.512V35Z" fill="white"/>
</mask>
<g mask="url(#mask0_334_300)">
<path d="M113.472 35.0086C116.85 35.0086 120.229 35.0144 123.606 35C123.942 34.9986 124.009 35.088 124.006 35.4022C123.976 38.0202 123.408 40.5205 122.362 42.9218C121.684 44.4795 120.769 45.8995 119.709 47.2242C118.721 48.4591 117.564 49.5275 116.287 50.4835C115.285 51.2335 114.232 51.8815 113.109 52.4242C111.438 53.232 109.687 53.7874 107.848 54.1011C106.685 54.2995 105.522 54.3847 104.345 54.3837C98.0466 54.3789 91.7485 54.3813 85.4504 54.3813C84.8335 54.3813 84.7669 54.3488 84.886 53.7385C84.984 53.235 84.9428 52.7309 85.0015 52.2282C85.1317 51.1091 85.3357 50.0091 85.6388 48.9269C85.9973 47.648 86.4975 46.4189 87.1371 45.2529C87.8302 43.9893 88.6346 42.7984 89.5988 41.71C90.7571 40.4024 92.0394 39.2326 93.4965 38.2656C94.7341 37.4444 96.0634 36.7796 97.4603 36.2463C98.8203 35.727 100.23 35.4003 101.662 35.166C102.25 35.0699 102.853 35.0172 103.449 35.0149C106.79 35.001 110.131 35.0082 113.471 35.0082L113.472 35.0086Z" fill="#81BC00"/>
<path d="M93.6353 58.994C97.0133 58.994 100.391 58.9998 103.769 58.9854C104.105 58.9839 104.172 59.0734 104.169 59.3877C104.139 62.0056 103.571 64.5059 102.525 66.9072C101.847 68.4649 100.931 69.8849 99.8716 71.2096C98.8838 72.4444 97.7263 73.5128 96.4494 74.4689C95.4479 75.2188 94.3949 75.8669 93.2715 76.4097C91.6012 77.2174 89.8497 77.7727 88.0113 78.0864C86.8481 78.2849 85.6843 78.37 84.5075 78.3691C78.2094 78.3643 71.9113 78.3666 65.6132 78.3666C64.9963 78.3666 64.9298 78.3342 65.0488 77.7239C65.1469 77.2203 65.1056 76.7162 65.1644 76.2136C65.2946 75.0945 65.4986 73.9944 65.8016 72.9122C66.1601 71.6333 66.6603 70.4042 67.3 69.2382C67.9931 67.9747 68.7974 66.7838 69.7616 65.6953C70.92 64.3877 72.2022 63.218 73.6593 62.2509C74.8968 61.4298 76.2263 60.765 77.6232 60.2317C78.983 59.7123 80.3926 59.3857 81.8244 59.1514C82.4132 59.0552 83.0154 59.0026 83.6118 59.0002C86.9525 58.9863 90.2936 58.9935 93.6343 58.9935L93.6353 58.994Z" fill="#81BC00"/>
</g>
<path d="M36.4812 141.632C35.0852 141.632 34.0032 141.256 33.2352 140.504C32.4672 139.748 32.0832 138.678 32.0832 137.294C32.0832 136.366 32.2612 135.55 32.6172 134.846C32.9772 134.142 33.4892 133.592 34.1532 133.196C34.8212 132.8 35.6192 132.602 36.5472 132.602C37.1792 132.602 37.7172 132.684 38.1612 132.848C38.6052 133.008 39.0012 133.262 39.3492 133.61L38.9172 134.312C38.3612 133.78 37.5632 133.514 36.5232 133.514C35.8112 133.514 35.2032 133.676 34.6992 134C34.1952 134.32 33.8112 134.758 33.5472 135.314C33.2832 135.87 33.1512 136.504 33.1512 137.216C33.1512 138.324 33.4412 139.186 34.0212 139.802C34.6052 140.414 35.4532 140.72 36.5652 140.72C36.9292 140.72 37.2692 140.7 37.5852 140.66C37.9052 140.616 38.1992 140.54 38.4672 140.432V137.852H36.3012V136.958H39.4992V141.014C39.0632 141.218 38.5992 141.372 38.1072 141.476C37.6192 141.58 37.0772 141.632 36.4812 141.632ZM47.6455 141.5V132.764H52.8475V133.652H48.6775V136.58H52.6195V137.468H48.6775V140.612H53.1475V141.5H47.6455ZM60.8905 141.5V132.764H62.1265L66.7285 139.448L67.1965 140.21V132.764H68.2225V141.5H66.9745L62.3545 134.822L61.9225 134.078V141.5H60.8905ZM76.4324 141.5V132.764H81.6344V133.652H77.4644V136.58H81.4064V137.468H77.4644V140.612H81.9344V141.5H76.4324ZM89.6774 141.5V132.764H91.8134C92.3174 132.764 92.7974 132.79 93.2534 132.842C93.7134 132.894 94.1214 132.998 94.4774 133.154C94.8374 133.31 95.1214 133.54 95.3294 133.844C95.5374 134.148 95.6414 134.552 95.6414 135.056C95.6414 135.468 95.5554 135.82 95.3834 136.112C95.2114 136.4 94.9834 136.634 94.6994 136.814C94.4194 136.99 94.1134 137.122 93.7814 137.21C94.0534 137.298 94.2734 137.436 94.4414 137.624C94.6094 137.808 94.7494 138.022 94.8614 138.266C94.9734 138.51 95.0834 138.768 95.1914 139.04L96.1694 141.5H95.0414L94.1234 138.986C94.0194 138.694 93.9034 138.444 93.7754 138.236C93.6474 138.028 93.4714 137.868 93.2474 137.756C93.0274 137.644 92.7214 137.588 92.3294 137.588H90.7094V141.5H89.6774ZM90.7094 136.706H92.3054C92.7014 136.706 93.0694 136.66 93.4094 136.568C93.7494 136.472 94.0234 136.312 94.2314 136.088C94.4434 135.86 94.5494 135.548 94.5494 135.152C94.5494 134.744 94.4514 134.432 94.2554 134.216C94.0634 134 93.8034 133.852 93.4754 133.772C93.1474 133.692 92.7794 133.652 92.3714 133.652H90.7094V136.706ZM102.695 141.5L106.319 132.764H107.429L111.059 141.5H109.913L108.935 139.118H104.747L103.811 141.5H102.695ZM105.077 138.23H108.581L107.177 134.6C107.125 134.472 107.069 134.326 107.009 134.162C106.953 133.998 106.903 133.848 106.859 133.712C106.815 133.848 106.763 134 106.703 134.168C106.643 134.332 106.591 134.478 106.547 134.606L105.077 138.23ZM122.129 141.632C121.249 141.632 120.493 141.442 119.861 141.062C119.229 140.678 118.745 140.15 118.409 139.478C118.073 138.802 117.905 138.024 117.905 137.144C117.905 136.26 118.079 135.476 118.427 134.792C118.779 134.108 119.271 133.572 119.903 133.184C120.539 132.796 121.285 132.602 122.141 132.602C122.801 132.602 123.347 132.692 123.779 132.872C124.211 133.048 124.591 133.26 124.919 133.508L124.445 134.264C124.141 134.032 123.803 133.85 123.431 133.718C123.059 133.582 122.667 133.514 122.255 133.514C121.547 133.514 120.951 133.672 120.467 133.988C119.987 134.3 119.623 134.73 119.375 135.278C119.127 135.822 119.003 136.446 119.003 137.15C119.003 137.834 119.117 138.446 119.345 138.986C119.577 139.522 119.925 139.946 120.389 140.258C120.857 140.566 121.447 140.72 122.159 140.72C122.703 140.72 123.179 140.65 123.587 140.51C123.999 140.366 124.357 140.162 124.661 139.898L125.003 140.738C124.647 141.026 124.229 141.248 123.749 141.404C123.273 141.556 122.733 141.632 122.129 141.632ZM132.812 141.5V132.764H133.844V141.5H132.812ZM146.066 141.65C145.354 141.65 144.73 141.528 144.194 141.284C143.658 141.036 143.208 140.7 142.844 140.276C142.484 139.848 142.212 139.364 142.028 138.824C141.848 138.284 141.758 137.72 141.758 137.132C141.758 136.54 141.848 135.974 142.028 135.434C142.212 134.89 142.484 134.406 142.844 133.982C143.208 133.554 143.658 133.218 144.194 132.974C144.73 132.726 145.354 132.602 146.066 132.602C146.778 132.602 147.402 132.726 147.938 132.974C148.474 133.218 148.922 133.554 149.282 133.982C149.646 134.406 149.918 134.89 150.098 135.434C150.282 135.974 150.374 136.54 150.374 137.132C150.374 137.72 150.282 138.284 150.098 138.824C149.918 139.364 149.646 139.848 149.282 140.276C148.922 140.7 148.474 141.036 147.938 141.284C147.402 141.528 146.778 141.65 146.066 141.65ZM146.066 140.738C146.622 140.738 147.144 140.604 147.632 140.336C148.12 140.064 148.514 139.66 148.814 139.124C149.118 138.588 149.27 137.922 149.27 137.126C149.27 136.326 149.118 135.66 148.814 135.128C148.514 134.592 148.12 134.19 147.632 133.922C147.144 133.65 146.622 133.514 146.066 133.514C145.51 133.514 144.988 133.65 144.5 133.922C144.012 134.19 143.616 134.592 143.312 135.128C143.012 135.66 142.862 136.326 142.862 137.126C142.862 137.922 143.012 138.588 143.312 139.124C143.616 139.66 144.012 140.064 144.5 140.336C144.988 140.604 145.51 140.738 146.066 140.738ZM158.211 141.5V132.764H159.447L164.049 139.448L164.517 140.21V132.764H165.543V141.5H164.295L159.675 134.822L159.243 134.078V141.5H158.211Z" fill="white"/>
<defs>
<clipPath id="clip0_334_300">
<rect width="142" height="40.8683" fill="white" transform="translate(25 84.5317)"/>
</clipPath>
</defs>
</svg>
