<svg width="57" height="53" viewBox="0 0 57 53" fill="none" xmlns="http://www.w3.org/2000/svg">
<path d="M47.5 22.0833L47.5 19.875C47.5 17.8213 47.5 16.7944 47.2572 15.9519C46.5984 13.6657 44.6779 11.88 42.2191 11.2674C41.313 11.0416 40.2087 11.0416 38 11.0416" stroke="white" stroke-width="4" stroke-linejoin="round"/>
<path d="M47.5 30.9166L47.5 33.125C47.5 35.1786 47.5 36.2055 47.2572 37.048C46.5984 39.3342 44.6779 41.12 42.2191 41.7326C41.313 41.9583 40.2087 41.9583 38 41.9583" stroke="white" stroke-width="4" stroke-linejoin="round"/>
<path d="M23.75 41.9583L21.375 41.9583C16.9356 41.9583 14.7159 41.9583 13.0625 41.0707C11.9794 40.4892 11.0799 39.6529 10.4546 38.6458C9.5 37.1085 9.5 35.0445 9.5 30.9166" stroke="white" stroke-width="4" stroke-linejoin="round"/>
<path d="M23.75 11.0416L21.375 11.0416C16.9356 11.0416 14.7159 11.0416 13.0625 11.9292C11.9794 12.5107 11.0799 13.347 10.4546 14.3541C9.5 15.8915 9.5 17.9554 9.5 22.0833" stroke="white" stroke-width="4" stroke-linejoin="round"/>
<path d="M23.75 46.375L23.75 6.625" stroke="white" stroke-width="4" stroke-linecap="round" stroke-linejoin="round"/>
</svg>
