<svg width="82" height="82" viewBox="0 0 82 82" fill="none" xmlns="http://www.w3.org/2000/svg">
<path d="M69.5633 38.506C68.2992 38.506 67.24 39.4626 67.1033 40.7268C66.2833 48.2435 62.2517 55.0085 56.0333 59.3135C54.9058 60.0993 54.6325 61.6368 55.4183 62.7643C56.2042 63.8918 57.7417 64.1651 58.8692 63.3793C66.2833 58.2201 71.0667 50.1568 72.0575 41.2393C72.1942 39.8726 71.2033 38.6426 69.8367 38.506C69.7342 38.506 69.6658 38.506 69.5633 38.506Z" fill="white"/>
<path d="M12.7783 38.335C12.7099 38.335 12.6074 38.335 12.5391 38.335C11.1724 38.4717 10.1816 39.7017 10.3183 41.0684C11.2408 49.9859 15.9558 58.0492 23.3016 63.2425C24.3949 64.0284 25.9666 63.755 26.7524 62.6617C27.5383 61.5342 27.2649 59.9967 26.1716 59.2109C20.0216 54.8375 16.0241 48.0725 15.2724 40.59C15.1358 39.2917 14.0424 38.335 12.7783 38.335Z" fill="white"/>
<path d="M54.6325 9.90825C50.43 7.89242 45.92 6.86742 41.205 6.86742C36.285 6.86742 31.6041 7.96075 27.2308 10.1816C26.0008 10.7624 25.5225 12.2658 26.1375 13.4958C26.7183 14.7258 28.2216 15.2041 29.4516 14.6233C31.6041 13.5299 33.8933 12.7783 36.2166 12.3341C39.36 11.7191 42.5716 11.6849 45.715 12.2316C48.0383 12.6416 50.3275 13.3591 52.4458 14.3841C53.71 14.9649 55.2133 14.4866 55.76 13.2224C56.375 11.9924 55.8966 10.4891 54.6325 9.90825Z" fill="white"/>
<path d="M41.1709 75.1326C35.8751 75.1326 31.5359 70.8276 31.5359 65.4976C31.5359 60.1676 35.8409 55.8626 41.1709 55.8626C46.5009 55.8626 50.8059 60.1676 50.8059 65.4976C50.8059 70.8276 46.5009 75.1326 41.1709 75.1326Z" fill="white"/>
<path d="M17.2541 34.6108C11.9583 34.6108 7.61914 30.3058 7.61914 24.9758C7.61914 19.6458 11.9241 15.3408 17.2541 15.3408C22.5841 15.3408 26.8891 19.6458 26.8891 24.9758C26.8891 30.3058 22.55 34.6108 17.2541 34.6108Z" fill="white"/>
<path d="M64.7458 34.6108C59.45 34.6108 55.1108 30.3058 55.1108 24.9758C55.1108 19.6458 59.4158 15.3408 64.7458 15.3408C70.0758 15.3408 74.3808 19.6458 74.3808 24.9758C74.3808 30.3058 70.0758 34.6108 64.7458 34.6108Z" fill="white"/>
</svg>
