<svg width="133" height="133" viewBox="0 0 133 133" fill="none" xmlns="http://www.w3.org/2000/svg">
<g clip-path="url(#clip0_821_336)">
<path d="M42.3745 0.676758L46.4634 1.04102C47.3095 1.11633 47.8344 1.83515 47.6401 2.54785C47.1482 4.3527 46.022 7.05132 43.481 9.15039C40.7091 11.4395 37.0737 12.3995 32.6235 11.9463C30.4688 11.7275 28.7468 12.0954 27.4478 13.1611H27.4468C26.4103 14.0119 25.7813 15.1908 25.4067 16.1689C25.0698 17.0487 24.2319 17.6651 23.4126 17.5869L19.3101 17.1953C18.4688 17.1147 17.9319 16.3902 18.1128 15.6572C18.6397 13.5224 19.9165 10.1287 22.9312 7.65527C25.6505 5.42519 29.2401 4.44494 33.3442 4.8623C35.7182 5.10287 37.6389 4.74077 38.9468 3.66016C39.4998 3.20331 39.8983 2.65427 40.1841 2.13379C40.6705 1.24804 41.548 0.60321 42.3745 0.676758Z" fill="white" stroke="black"/>
<path d="M70.4292 0.676758L74.5181 1.04102C75.3642 1.11634 75.889 1.83517 75.6948 2.54785C75.203 4.35267 74.0777 7.05128 71.5366 9.15039C68.7648 11.4397 65.1294 12.4004 60.6792 11.9473H60.6782C58.7861 11.7559 57.4113 12.0473 56.3911 12.5752C55.3719 13.1026 54.7524 13.8421 54.3335 14.4629C53.5143 15.6771 53.1501 17.0154 53.0015 17.7334L47.3638 17.1953C46.5229 17.1147 45.9858 16.3909 46.1665 15.6582C46.6932 13.5234 47.9706 10.1292 50.9858 7.65527L50.9849 7.6543C53.7035 5.42435 57.2938 4.44506 61.3979 4.8623H61.3989C63.7725 5.10281 65.6937 4.74074 67.0015 3.66016C67.5545 3.20331 67.953 2.65427 68.2388 2.13379C68.7252 1.24803 69.6027 0.603184 70.4292 0.676758Z" fill="white" stroke="black"/>
<path d="M45.3237 23.054H49.4438C50.2723 23.054 50.9438 23.7255 50.9438 24.554V40.5618C50.9439 42.7093 53.4738 43.8573 55.0903 42.4436L57.2349 40.5676C58.2048 39.7194 59.7231 40.408 59.7231 41.6965V122.338C59.7234 123.719 60.8426 124.838 62.2231 124.838H66.4976C67.8781 124.838 68.9973 123.719 68.9976 122.338V77.2551C68.9977 76.4269 69.6693 75.7552 70.4976 75.7551H121.125C121.953 75.7553 122.624 76.427 122.625 77.2551V131C122.624 131.828 121.953 132.5 121.125 132.5H11.8765C11.0481 132.5 10.3766 131.829 10.3765 131V63.7629C10.3765 63.3303 10.5635 62.9189 10.8892 62.634L17.5093 56.844C17.6867 56.6889 17.7221 56.4661 17.6548 56.2805V26.4485C17.655 25.6203 18.3265 24.9485 19.1548 24.9485H23.2749C24.1032 24.9485 24.7747 25.6203 24.7749 26.4485V49.3879C24.7752 49.7996 25.2461 50.0361 25.5767 49.7874L25.5913 49.7766L25.605 49.7649L28.2739 47.4309C29.2439 46.5832 30.7612 47.2725 30.7612 48.5608V122.609C30.7614 123.989 31.8806 125.109 33.2612 125.109H39.1108C39.5363 125.109 39.8821 124.764 39.8823 124.338V56.425C39.8823 55.9923 40.0692 55.58 40.395 55.2952L42.9692 53.0452C43.5122 52.5704 43.8237 51.8836 43.8237 51.1624V24.554C43.8237 23.7255 44.4953 23.054 45.3237 23.054ZM84.3354 106.018C82.9549 106.018 81.8355 107.137 81.8354 108.518V122.338C81.8356 123.719 82.955 124.838 84.3354 124.838H88.4565C89.8372 124.838 90.9564 123.719 90.9565 122.338V116.639C90.9566 115.811 91.6282 115.139 92.4565 115.139H98.6968C99.5252 115.139 100.197 115.811 100.197 116.639V122.338C100.197 123.719 101.316 124.838 102.697 124.838H106.818C108.198 124.838 109.318 123.719 109.318 122.338V108.518C109.318 107.137 108.199 106.018 106.818 106.018H84.3354ZM84.5737 90.7375C83.1931 90.7377 82.0737 91.8569 82.0737 93.2375V97.3577C82.0737 98.7383 83.1931 99.8575 84.5737 99.8577H106.561C107.942 99.8575 109.061 98.7383 109.061 97.3577V93.2375C109.061 91.857 107.942 90.7378 106.561 90.7375H84.5737ZM17.1704 56.9407C17.1383 56.9407 17.1072 56.9363 17.0776 56.9309C17.1076 56.9363 17.1388 56.9407 17.1704 56.9407ZM17.0454 56.9231C17.0269 56.9184 17.009 56.9132 16.9917 56.9065C17.0092 56.913 17.027 56.9185 17.0454 56.9231Z" fill="white" stroke="black"/>
</g>
<defs>
<clipPath id="clip0_821_336">
<rect width="133" height="133" fill="white"/>
</clipPath>
</defs>
</svg>
