<svg width="140" height="140" viewBox="0 0 140 140" fill="none" xmlns="http://www.w3.org/2000/svg">
<path d="M49.5248 16.5083H90.4748C105 16.5083 108.208 23.7416 110.075 32.6083L116.667 64.1666H23.3332L29.9248 32.6083C31.7915 23.7416 34.9998 16.5083 49.5248 16.5083Z" stroke="#171717" stroke-width="1.5" stroke-linecap="round" stroke-linejoin="round"/>
<path d="M11.7251 115.617C11.0834 122.442 16.5667 128.333 23.5667 128.333H34.5334C40.8334 128.333 41.7084 125.65 42.8167 122.325L43.9834 118.825C45.6167 114.042 46.6667 110.833 55.0667 110.833H84.9334C93.3334 110.833 94.5584 114.45 96.0167 118.825L97.1834 122.325C98.2917 125.65 99.1667 128.333 105.467 128.333H116.433C123.433 128.333 128.917 122.442 128.275 115.617L125.008 80.0917C124.192 71.3417 122.5 64.1667 107.217 64.1667H32.7834C17.5001 64.1667 15.8084 71.3417 14.9917 80.0917L11.7251 115.617Z" stroke="#171717" stroke-width="1.5" stroke-linecap="round" stroke-linejoin="round"/>
<path d="M116.667 46.6667H122.5" stroke="#171717" stroke-width="1.5" stroke-linecap="round" stroke-linejoin="round"/>
<path d="M17.5002 46.6667H23.3335" stroke="#171717" stroke-width="1.5" stroke-linecap="round" stroke-linejoin="round"/>
<path d="M70 17.5V29.1667" stroke="#171717" stroke-width="1.5" stroke-linecap="round" stroke-linejoin="round"/>
<path d="M78.75 29.1667H61.25" stroke="#171717" stroke-width="1.5" stroke-linecap="round" stroke-linejoin="round"/>
<path d="M105 87.5H87.5" stroke="#171717" stroke-width="1.5" stroke-linecap="round" stroke-linejoin="round"/>
<path d="M52.5 87.5H35" stroke="#171717" stroke-width="1.5" stroke-linecap="round" stroke-linejoin="round"/>
</svg>
