<svg width="133" height="133" viewBox="0 0 133 133" fill="none" xmlns="http://www.w3.org/2000/svg">
<path d="M37.1294 99.7499H22.9982C15.0736 99.7499 11.0835 95.7598 11.0835 87.8352V22.998C11.0835 15.0734 15.0736 11.0833 22.9982 11.0833H46.8273C54.7519 11.0833 58.7417 15.0734 58.7417 22.998V33.2499" stroke="#171717" stroke-miterlimit="10" stroke-linecap="round" stroke-linejoin="round"/>
<path d="M96.2589 46.6607V108.506C96.2589 117.428 91.8257 121.917 82.9036 121.917H50.5401C41.6181 121.917 37.1294 117.428 37.1294 108.506V46.6607C37.1294 37.7387 41.6181 33.25 50.5401 33.25H82.9036C91.8257 33.25 96.2589 37.7387 96.2589 46.6607Z" stroke="#171717" stroke-miterlimit="10" stroke-linecap="round" stroke-linejoin="round"/>
<path d="M74.2583 33.2499V22.998C74.2583 15.0734 78.2481 11.0833 86.1727 11.0833H110.002C117.926 11.0833 121.917 15.0734 121.917 22.998V87.8352C121.917 95.7598 117.926 99.7499 110.002 99.7499H96.2586" stroke="#171717" stroke-miterlimit="10" stroke-linecap="round" stroke-linejoin="round"/>
<path d="M55.4165 60.9583H77.5832" stroke="#171717" stroke-miterlimit="10" stroke-linecap="round" stroke-linejoin="round"/>
<path d="M55.4165 77.5833H77.5832" stroke="#171717" stroke-miterlimit="10" stroke-linecap="round" stroke-linejoin="round"/>
<path d="M66.5 121.917V105.292" stroke="#171717" stroke-miterlimit="10" stroke-linecap="round" stroke-linejoin="round"/>
</svg>
